<?xml version="1.0" encoding="UTF-8"?>
<svg id="Layer_2" data-name="Layer 2" xmlns="http://www.w3.org/2000/svg" xmlns:xlink="http://www.w3.org/1999/xlink" viewBox="0 0 43.69 38" xmlns:c2pa="http://c2pa.org/manifest"><metadata><c2pa:manifest>AAAWgmp1bWIAAAAeanVtZGMycGEAEQAQgAAAqgA4m3EDYzJwYQAAABZcanVtYgAAAEdqdW1kYzJtYQARABCAAACqADibcQN1cm46YzJwYTplOTIyYzU4Ny01YTExLTQ5NzEtYjQ5Yy1hYmRlNDkxYWFjY2IAAAADl2p1bWIAAAApanVtZGMyYXMAEQAQgAAAqgA4m3EDYzJwYS5hc3NlcnRpb25zAAAAALxqdW1iAAAARGp1bWRjYm9yABEAEIAAAKoAOJtxE2MycGEuaW5ncmVkaWVudC52MwAAAAAYYzJzaGpH7t5ufxCQjegs8el46vUAAABwY2JvcqNpZGM6Zm9ybWF0bWltYWdlL3N2Zyt4bWxqaW5zdGFuY2VJRHgseG1wOmlpZDphMDdlMzNkZC1mMWJjLTQwZGEtYTZmMS1lNjdmMjg2NDlmZTdscmVsYXRpb25zaGlwaHBhcmVudE9mAAAB4mp1bWIAAABBanVtZGNib3IAEQAQgAAAqgA4m3ETYzJwYS5hY3Rpb25zLnYyAAAAABhjMnNoFLdEGkMFCI7fKHOJS6iKRgAAAZljYm9yomdhY3Rpb25zgqJmYWN0aW9ua2MycGEub3BlbmVkanBhcmFtZXRlcnOha2luZ3JlZGllbnRzgaJjdXJseC1zZWxmI2p1bWJmPWMycGEuYXNzZXJ0aW9ucy9jMnBhLmluZ3JlZGllbnQudjNkaGFzaFggscvaup5l+Ho0zSixExoUkZA8VTIoz1UNo+XEKLO9K16kZmFjdGlvbngdY29tLmFudGhyb3BpYy5jbGF1ZGUucHJvdmlkZWRqcGFyYW1ldGVyc6F4H2NvbS5hbnRocm9waWMub3JpZ2luLWNvbmZpZGVuY2VndW5rbm93bmtkZXNjcmlwdGlvbnhmQ2xhdWRlIHByb3ZpZGVkIHRoaXMgZmlsZSBhdCB0aGUgcmVxdWVzdCBvZiBhIHVzZXIgYW5kIG1heSBoYXZlIGNyZWF0ZWQgb3IgbW9kaWZpZWQgdGhlIGZpbGUgY29udGVudHMubXNvZnR3YXJlQWdlbnShZG5hbWVmQ2xhdWRlcmFsbEFjdGlvbnNJbmNsdWRlZPUAAADIanVtYgAAAEBqdW1kY2JvcgARABCAAACqADibcRNjMnBhLmhhc2guZGF0YQAAAAAYYzJzaDmZ15EOKlmU7Z/Ha4kzQpQAAACAY2JvcqVjYWxnZnNoYTI1NmNwYWRNAAAAAAAAAAAAAAAAAGRoYXNoWCBvcoVUk2AHkQb432aS7VKOpylE3rVxqvRJpVNsy5qz/GRuYW1lbmp1bWJmIG1hbmlmZXN0amV4Y2x1c2lvbnOBomVzdGFydBjyZmxlbmd0aBkeBAAAAj5qdW1iAAAAJ2p1bWRjMmNsABEAEIAAAKoAOJtxA2MycGEuY2xhaW0udjIAAAACD2Nib3KlY2FsZ2ZzaGEyNTZpc2lnbmF0dXJleE1zZWxmI2p1bWJmPS9jMnBhL3VybjpjMnBhOmU5MjJjNTg3LTVhMTEtNDk3MS1iNDljLWFiZGU0OTFhYWNjYi9jMnBhLnNpZ25hdHVyZWppbnN0YW5jZUlEeCx4bXA6aWlkOjEwYzM2NGY0LWIyMzktNDhhMi1hMTdjLWM3NWRjODg5YWUzMHJjcmVhdGVkX2Fzc2VydGlvbnODomN1cmx4LXNlbGYjanVtYmY9YzJwYS5hc3NlcnRpb25zL2MycGEuaW5ncmVkaWVudC52M2RoYXNoWCCxy9q6nmX4ejTNKLETGhSRkDxVMijPVQ2j5cQos70rXqJjdXJseCpzZWxmI2p1bWJmPWMycGEuYXNzZXJ0aW9ucy9jMnBhLmFjdGlvbnMudjJkaGFzaFggw6c+ifSmJWc8rMOud77leRKaiSsaqChBvNoIEvJ8/qaiY3VybHgpc2VsZiNqdW1iZj1jMnBhLmFzc2VydGlvbnMvYzJwYS5oYXNoLmRhdGFkaGFzaFggSyqFIgySB09U9/shZFX/1k9eYMZXSNgfstn7M+vG2sN0Y2xhaW1fZ2VuZXJhdG9yX2luZm+jZG5hbWVvQW50aHJvcGljIEZpbGVzZ3ZlcnNpb25lMS4wLjBrc3BlY1ZlcnNpb25lMi40LjAAABA4anVtYgAAAChqdW1kYzJjcwARABCAAACqADibcQNjMnBhLnNpZ25hdHVyZQAAABAIY2JvctKEWQISogEmGCFZAgowggIGMIIBjaADAgECAhRA5aAK7sI50L64g/oGQgU9Z1UTADAKBggqhkjOPQQDAzBJMRcwFQYDVQQKEw5BbnRocm9waWMsIFBCQzEuMCwGA1UEAxMlQW50aHJvcGljIENvbnRlbnQgQ3JlZGVudGlhbHMgUm9vdCBDQTAeFw0yNjA4MDcxODQzNTZaFw0yODA4MDYxOTQzNTZaMEQxFzAVBgNVBAoTDkFudGhyb3BpYywgUEJDMSkwJwYDVQQDEyBBbnRocm9waWMgQ2xhdWRlIENvbnRlbnQgU2lnbmluZzBZMBMGByqGSM49AgEGCCqGSM49AwEHA0IABJh6CmvLUBgFFNU0vUKlOVtE6djd17L5SuwX0LemFisBM3dkd/3cyjxFA3Qo5S46fX0/ihY0VZ7mfb9KF703t5OjWDBWMA4GA1UdDwEB/wQEAwIHgDAVBgNVHSUEDjAMBgorBgEEAYPoXgIBMAwGA1UdEwEB/wQCMAAwHwYDVR0jBBgwFoAUzlHiBIFOZFsj+OPEz5o+nMHXXMIwCgYIKoZIzj0EAwMDZwAwZAIwMXMdFJ4BetLLVY7ORuE9noqbbAZOZn/aArXyTwFAZfKrPzxF2vPoJNf1+UCdg1XGAjBwX1zd9WGqYkqmL5SFqw1QySjr1zJfpJM9+1rdDwSPLMOPOjKuiXjoU/pUUeG9RwmhY3BhZFkNngAAAAAAAAAAAAAAAAAAAAAAAAAAAAAAAAAAAAAAAAAAAAAAAAAAAAAAAAAAAAAAAAAAAAAAAAAAAAAAAAAAAAAAAAAAAAAAAAAAAAAAAAAAAAAAAAAAAAAAAAAAAAAAAAAAAAAAAAAAAAAAAAAAAAAAAAAAAAAAAAAAAAAAAAAAAAAAAAAAAAAAAAAAAAAAAAAAAAAAAAAAAAAAAAAAAAAAAAAAAAAAAAAAAAAAAAAAAAAAAAAAAAAAAAAAAAAAAAAAAAAAAAAAAAAAAAAAAAAAAAAAAAAAAAAAAAAAAAAAAAAAAAAAAAAAAAAAAAAAAAAAAAAAAAAAAAAAAAAAAAAAAAAAAAAAAAAAAAAAAAAAAAAAAAAAAAAAAAAAAAAAAAAAAAAAAAAAAAAAAAAAAAAAAAAAAAAAAAAAAAAAAAAAAAAAAAAAAAAAAAAAAAAAAAAAAAAAAAAAAAAAAAAAAAAAAAAAAAAAAAAAAAAAAAAAAAAAAAAAAAAAAAAAAAAAAAAAAAAAAAAAAAAAAAAAAAAAAAAAAAAAAAAAAAAAAAAAAAAAAAAAAAAAAAAAAAAAAAAAAAAAAAAAAAAAAAAAAAAAAAAAAAAAAAAAAAAAAAAAAAAAAAAAAAAAAAAAAAAAAAAAAAAAAAAAAAAAAAAAAAAAAAAAAAAAAAAAAAAAAAAAAAAAAAAAAAAAAAAAAAAAAAAAAAAAAAAAAAAAAAAAAAAAAAAAAAAAAAAAAAAAAAAAAAAAAAAAAAAAAAAAAAAAAAAAAAAAAAAAAAAAAAAAAAAAAAAAAAAAAAAAAAAAAAAAAAAAAAAAAAAAAAAAAAAAAAAAAAAAAAAAAAAAAAAAAAAAAAAAAAAAAAAAAAAAAAAAAAAAAAAAAAAAAAAAAAAAAAAAAAAAAAAAAAAAAAAAAAAAAAAAAAAAAAAAAAAAAAAAAAAAAAAAAAAAAAAAAAAAAAAAAAAAAAAAAAAAAAAAAAAAAAAAAAAAAAAAAAAAAAAAAAAAAAAAAAAAAAAAAAAAAAAAAAAAAAAAAAAAAAAAAAAAAAAAAAAAAAAAAAAAAAAAAAAAAAAAAAAAAAAAAAAAAAAAAAAAAAAAAAAAAAAAAAAAAAAAAAAAAAAAAAAAAAAAAAAAAAAAAAAAAAAAAAAAAAAAAAAAAAAAAAAAAAAAAAAAAAAAAAAAAAAAAAAAAAAAAAAAAAAAAAAAAAAAAAAAAAAAAAAAAAAAAAAAAAAAAAAAAAAAAAAAAAAAAAAAAAAAAAAAAAAAAAAAAAAAAAAAAAAAAAAAAAAAAAAAAAAAAAAAAAAAAAAAAAAAAAAAAAAAAAAAAAAAAAAAAAAAAAAAAAAAAAAAAAAAAAAAAAAAAAAAAAAAAAAAAAAAAAAAAAAAAAAAAAAAAAAAAAAAAAAAAAAAAAAAAAAAAAAAAAAAAAAAAAAAAAAAAAAAAAAAAAAAAAAAAAAAAAAAAAAAAAAAAAAAAAAAAAAAAAAAAAAAAAAAAAAAAAAAAAAAAAAAAAAAAAAAAAAAAAAAAAAAAAAAAAAAAAAAAAAAAAAAAAAAAAAAAAAAAAAAAAAAAAAAAAAAAAAAAAAAAAAAAAAAAAAAAAAAAAAAAAAAAAAAAAAAAAAAAAAAAAAAAAAAAAAAAAAAAAAAAAAAAAAAAAAAAAAAAAAAAAAAAAAAAAAAAAAAAAAAAAAAAAAAAAAAAAAAAAAAAAAAAAAAAAAAAAAAAAAAAAAAAAAAAAAAAAAAAAAAAAAAAAAAAAAAAAAAAAAAAAAAAAAAAAAAAAAAAAAAAAAAAAAAAAAAAAAAAAAAAAAAAAAAAAAAAAAAAAAAAAAAAAAAAAAAAAAAAAAAAAAAAAAAAAAAAAAAAAAAAAAAAAAAAAAAAAAAAAAAAAAAAAAAAAAAAAAAAAAAAAAAAAAAAAAAAAAAAAAAAAAAAAAAAAAAAAAAAAAAAAAAAAAAAAAAAAAAAAAAAAAAAAAAAAAAAAAAAAAAAAAAAAAAAAAAAAAAAAAAAAAAAAAAAAAAAAAAAAAAAAAAAAAAAAAAAAAAAAAAAAAAAAAAAAAAAAAAAAAAAAAAAAAAAAAAAAAAAAAAAAAAAAAAAAAAAAAAAAAAAAAAAAAAAAAAAAAAAAAAAAAAAAAAAAAAAAAAAAAAAAAAAAAAAAAAAAAAAAAAAAAAAAAAAAAAAAAAAAAAAAAAAAAAAAAAAAAAAAAAAAAAAAAAAAAAAAAAAAAAAAAAAAAAAAAAAAAAAAAAAAAAAAAAAAAAAAAAAAAAAAAAAAAAAAAAAAAAAAAAAAAAAAAAAAAAAAAAAAAAAAAAAAAAAAAAAAAAAAAAAAAAAAAAAAAAAAAAAAAAAAAAAAAAAAAAAAAAAAAAAAAAAAAAAAAAAAAAAAAAAAAAAAAAAAAAAAAAAAAAAAAAAAAAAAAAAAAAAAAAAAAAAAAAAAAAAAAAAAAAAAAAAAAAAAAAAAAAAAAAAAAAAAAAAAAAAAAAAAAAAAAAAAAAAAAAAAAAAAAAAAAAAAAAAAAAAAAAAAAAAAAAAAAAAAAAAAAAAAAAAAAAAAAAAAAAAAAAAAAAAAAAAAAAAAAAAAAAAAAAAAAAAAAAAAAAAAAAAAAAAAAAAAAAAAAAAAAAAAAAAAAAAAAAAAAAAAAAAAAAAAAAAAAAAAAAAAAAAAAAAAAAAAAAAAAAAAAAAAAAAAAAAAAAAAAAAAAAAAAAAAAAAAAAAAAAAAAAAAAAAAAAAAAAAAAAAAAAAAAAAAAAAAAAAAAAAAAAAAAAAAAAAAAAAAAAAAAAAAAAAAAAAAAAAAAAAAAAAAAAAAAAAAAAAAAAAAAAAAAAAAAAAAAAAAAAAAAAAAAAAAAAAAAAAAAAAAAAAAAAAAAAAAAAAAAAAAAAAAAAAAAAAAAAAAAAAAAAAAAAAAAAAAAAAAAAAAAAAAAAAAAAAAAAAAAAAAAAAAAAAAAAAAAAAAAAAAAAAAAAAAAAAAAAAAAAAAAAAAAAAAAAAAAAAAAAAAAAAAAAAAAAAAAAAAAAAAAAAAAAAAAAAAAAAAAAAAAAAAAAAAAAAAAAAAAAAAAAAAAAAAAAAAAAAAAAAAAAAAAAAAAAAAAAAAAAAAAAAAAAAAAAAAAAAAAAAAAAAAAAAAAAAAAAAAAAAAAAAAAAAAAAAAAAAAAAAAAAAAAAAAAAAAAAAAAAAAAAAAAAAAAAAAAAAAAAAAAAAAAAAAAAAAAAAAAAAAAAAAAAAAAAAAAAAAAAAAAAAAAAAAAAAAAAAAAAAAAAAAAAAAAAAAAAAAAAAAAAAAAAAAAAAAAAAAAAAAAAAAAAAAAAAAAAAAAAAAAAAAAAAAAAAAAAAAAAAAAAAAAAAAAAAAAAAAAAAAAAAAAAAAAAAAAAAAAAAAAAAAAAAAAAAAAAAAAAAAAAAAAAAAAAAAAAAAAAAAAAAAAAAAAAAAAAAAAAAAAAAAAAAAAAAAAAAAAAAAAAAAAAAAAAAAAAAAAAAAAAAAAAAAAAAAAAAAAAAAAAAAAAAAAAAAAAAAAAAAAAAAAAAAAAAAAAAAAAAAAAAAAAAAAAAAAAAAAAAAAAAAAAAAAAAAAAAAAAAAAAAAAAAAAAAAAAAAAAAAAAAAAAAAAAAAAAAAAAAAAAAAAAAAAAAAAAAAAAAAAAAAAAAAAAAAAAAAAAAAAAAAAAAAAAAAAAAAAAAAAAAAAAAAAAAAAAAAAAAAAAAAAAAAAAAAAAAAAAAAAAAAAAAAAAAAAAAAAAAAAAAAAAAAAAAAAAAAAAAAAAAAAAAAAAAAAAAAAAAAAAAAAAAAAAAAAAAAAAAAAAAAAAAAAAAAAAAAAAAAAAAAAAAAAAAAAAAAAAAAAAAAAAAAAAAAAAAAAAAAAAAAAAAAAAAAAAAAAAAAAAAAAAAAAAAAAAAAAAAAAAAAAAAAAAAAAAAAAAAAAAAAAAAAAAAAAAAAAAAAAAAAAAAAAAAAAAAAAAAAAAAAAAAAAAAAAAAAAAAAAAAAAAAAAAAAAAAAAAAAAAAAAAAAAAAAAAAAAAAAAAAAAAAAAAAAAAAAAAAAAAAAAAAAAAAAAAAAAAAAAAAAAAAAAAAAAAAAAAAAAAAAAAAAAAAAAAAAAAAAAAAAAAAAAAAAAAAAAAAAAAAAAAAAAAAAAAAAAAAAAAAAAAAAAAAAAAAAAAAAAAAAAAAAAAAAAAAAAAAAAAAAAAAAAAAAAAAAAAAAAAAAAAAAAAAAAAAAAAAAAAAAAAAAAAAAAAAAAAAAAAAAAAAAAAAAAAAAAAAAAAAAAAAAAAAAAAAAAAAAAAAAAAAAAAAAAAAAAAAAAAAAAAAAAAAAAAAAAAAAAAAAAAAAAAAAAAAAAAAAAAAAAAAAAAAAAAAAAAAAAAAAAAAAAAAAAAAAAAAAAAAAAAAAAAAAAAAAAAAAAAAAAAAAAAAAAAAAAAAAAAAAAAAAAAAAAAAAAAAAAAAAAAAAAAAAAAAAAAAAAAAAAAAAAAAAAAAAAAAAAAAAAAAAAAAAAAAAAAAAAAAAAAAAAAAAAAAAAAAAAAAAAAAAAAAAAAAAAAAAAAAAAAAAAAAAAAAAAAAAAAAAAAAAAAAAAAAAAAAAAAAAAAAAAAAAAAAAAAAAAAAAAAAAAAAAAAAAAAAAAAAAAAAAAAAAAAAAAAAAAAAAAAAPZYQNuX+5gmYFqPwLxcTzxoJpVXaTMc42EPZcpPYu0lWKtL0x4JPcm9C1TH1yoBgE5vdwvZKKirGoxQBdJqjruy8yM=</c2pa:manifest></metadata>
  <defs>
    <style>
      .cls-1 {
        fill: none;
      }

      .cls-2 {
        fill: url(#linear-gradient-7);
      }

      .cls-3 {
        fill: url(#linear-gradient-5);
      }

      .cls-4 {
        fill: url(#linear-gradient-6);
      }

      .cls-5 {
        fill: url(#linear-gradient-4);
      }

      .cls-6 {
        fill: url(#linear-gradient-3);
      }

      .cls-7 {
        fill: url(#linear-gradient-2);
      }

      .cls-8 {
        fill: url(#linear-gradient);
      }

      .cls-9 {
        fill: #ffc19f;
      }
    </style>
    <linearGradient id="linear-gradient" x1="20.76" y1="13.79" x2="38.49" y2="-3.54" gradientUnits="userSpaceOnUse">
      <stop offset=".51" stop-color="#89371c"/>
      <stop offset="1" stop-color="#000"/>
    </linearGradient>
    <linearGradient id="linear-gradient-2" x1="37.7" y1="9.79" x2="34.49" y2="15.2" gradientUnits="userSpaceOnUse">
      <stop offset=".76" stop-color="#f3903f"/>
      <stop offset="1" stop-color="#ed683c"/>
    </linearGradient>
    <linearGradient id="linear-gradient-3" x1="36.05" y1="21.72" x2="27.32" y2="15.39" gradientUnits="userSpaceOnUse">
      <stop offset=".31" stop-color="#89371c"/>
      <stop offset="1" stop-color="#000"/>
    </linearGradient>
    <linearGradient id="linear-gradient-4" x1="38.19" y1="1.54" x2="24.16" y2="39.2" gradientUnits="userSpaceOnUse">
      <stop offset=".45" stop-color="#fdc70c"/>
      <stop offset=".67" stop-color="#f3903f"/>
      <stop offset=".86" stop-color="#ed683c"/>
      <stop offset="1" stop-color="#e93e3a"/>
    </linearGradient>
    <linearGradient id="linear-gradient-5" x1="13.07" y1="18.98" x2="24.35" y2="35.64" gradientUnits="userSpaceOnUse">
      <stop offset=".42" stop-color="#d25d1a"/>
      <stop offset="1" stop-color="#c32f15"/>
    </linearGradient>
    <linearGradient id="linear-gradient-6" x1="4.62" y1="14.25" x2="9.85" y2="22.84" gradientUnits="userSpaceOnUse">
      <stop offset=".14" stop-color="#89371c"/>
      <stop offset="1" stop-color="#000"/>
    </linearGradient>
    <linearGradient id="linear-gradient-7" x1="11.24" y1="8.04" x2="16.3" y2="16.42" xlink:href="#linear-gradient-3"/>
  </defs>
  <g id="Layer_1-2" data-name="Layer 1">
    <g>
      <path class="cls-1" d="M32.43,21.37l1.81-1.05c.05-.03.11-.07.16-.1-.05.04-.11.07-.16.1l-1.81,1.05Z"/>
      <polygon class="cls-1" points="19.25 8.61 24.3 11.54 19.25 8.61 19.25 8.61"/>
      <polygon class="cls-1" points="24.3 11.54 24.3 11.55 24.3 16.93 24.3 19.2 24.3 35.36 24.3 35.36 24.3 27.44 24.3 19.2 24.3 16.93 24.3 11.55 31.1 7.6 31.1 7.6 24.3 11.54"/>
      <path class="cls-1" d="M37.26,13.97c-.04-.13-.07-.27-.12-.38-.03-.07-.08-.12-.11-.18-.06-.09-.11-.19-.18-.27-.05-.05-.11-.09-.16-.13-.58-.5-1.46-.53-2.47.04,0,0-.01,0-.01,0,0,0,.01,0,.01,0,1-.58,1.89-.54,2.47-.04.05.05.11.08.16.13.07.08.12.18.18.27.04.06.08.11.11.18.05.11.09.25.12.38.02.07.05.12.06.2.04.21.07.44.07.69,0,.21-.02.43-.05.65,0,.06-.01.13-.03.19-.01.06-.03.13-.04.19-.04.19-.08.37-.13.56,0,0,0,.01,0,.02-.08.25-.17.5-.27.74-.11.25-.24.5-.37.74-.01.02-.02.03-.03.05-.14.24-.3.48-.46.7-.15.2-.3.38-.46.56-.09.09-.18.18-.27.26.09-.09.18-.17.27-.26.16-.18.32-.36.46-.56.17-.22.32-.46.46-.7.01-.02.02-.03.03-.05.14-.24.26-.49.37-.74.11-.24.2-.49.27-.74,0,0,0-.01,0-.02.06-.19.1-.37.13-.56.01-.06.03-.13.04-.19.01-.06.02-.13.03-.19.03-.22.05-.44.05-.65,0-.25-.02-.48-.07-.69-.01-.07-.04-.13-.06-.2Z"/>
      <path class="cls-8" d="M17.06,7.34l2.19,1.27h0s5.05,2.93,5.05,2.93l6.79-3.94h0s0,0,0,0l3.1-1.79c.29-.17.58-.32.87-.45.07-.03.15-.07.22-.1.27-.12.53-.23.79-.32.01,0,.02,0,.03-.01,0,0,.02,0,.02,0,.24-.08.47-.14.71-.2,0,0,0,0,.01,0,.13-.03.25-.06.38-.08.17-.03.33-.06.49-.08,0,0,.01,0,.02,0,.09-.01.18-.02.27-.03.19-.01.39-.02.57-.01.02,0,.03,0,.05,0,.04,0,.08,0,.12,0,.24.01.47.04.7.08,0,0,.01,0,.02,0,.05,0,.09.02.14.03.18.04.35.09.52.15.01,0,.02,0,.03.01.05.02.09.03.14.05.21.08.41.17.61.28,0,0,0,0,0,0l-7.64-4.52s0,0,0,0c-.19-.11-.4-.2-.61-.28-.05-.02-.09-.03-.14-.05-.01,0-.02,0-.03-.01-.17-.06-.34-.11-.52-.15-.04-.01-.09-.02-.14-.03,0,0-.01,0-.02,0-.23-.04-.46-.07-.7-.08-.04,0-.08,0-.12,0-.02,0-.03,0-.05,0-.19,0-.38,0-.57.01-.09,0-.18.02-.27.03,0,0-.01,0-.02,0-.16.02-.33.05-.49.08-.13.02-.25.05-.38.08,0,0,0,0-.01,0-.23.06-.47.12-.71.2,0,0-.02,0-.02,0,0,0-.02,0-.03.01-.26.09-.52.2-.79.32-.07.03-.15.07-.22.1-.29.14-.58.28-.87.45l-9.61,5.54h0s-.85.48-.85.48c.29-.14.64-.15.96.03Z"/>
      <path class="cls-9" d="M.5,16.23s0,0,0,0c0,0,.01,0,.02-.01h-.02Z"/>
      <path class="cls-7" d="M36.48,17.95c.14-.24.26-.49.37-.74.11-.24.2-.49.27-.74,0,0,0-.01,0-.02.06-.19.1-.37.13-.56.01-.06.03-.13.04-.19.01-.06.02-.13.03-.19.03-.22.05-.44.05-.65,0-.25-.02-.48-.07-.69-.01-.07-.04-.13-.06-.2-.04-.13-.07-.27-.12-.38-.03-.07-.08-.12-.11-.18-.06-.09-.11-.19-.18-.27-.05-.05-.11-.09-.16-.13-.58-.5-1.46-.53-2.47.04,0,0-.01,0-.01,0-.05.03-.22.12-.48.27-.11.07-.25.14-.39.22-.07.04-.15.08-.23.13-.16.09-.33.19-.51.29-.16.09-.32.18-.49.28-.19.11-.4.23-.6.34-.08.05-.16.09-.24.14-.05.03-.11.06-.16.09h0s5.35,3.16,5.35,3.16c.01-.02.02-.03.03-.05Z"/>
      <path class="cls-6" d="M35.98,18.71c.17-.22.32-.46.46-.7l-5.35-3.16v7.29l1.33-.77,1.81-1.05c.05-.03.11-.07.16-.1.11-.07.22-.15.33-.24.1-.08.19-.15.29-.23.08-.07.16-.14.23-.22,0,0,0,0,0,0,.09-.09.18-.17.27-.26.16-.18.32-.36.46-.56Z"/>
      <path class="cls-5" d="M40.9,5.14s0,0,0,0c-.19-.11-.4-.2-.61-.28-.05-.02-.09-.03-.14-.05-.01,0-.02,0-.03-.01-.17-.06-.34-.11-.52-.15-.04-.01-.09-.02-.14-.03,0,0-.01,0-.02,0-.23-.04-.46-.07-.7-.08-.04,0-.08,0-.12,0-.02,0-.03,0-.05,0-.19,0-.38,0-.57.01-.09,0-.18.02-.27.03,0,0-.01,0-.02,0-.16.02-.33.05-.49.08-.13.02-.25.05-.38.08,0,0,0,0-.01,0-.23.06-.47.12-.71.2,0,0-.02,0-.02,0,0,0-.02,0-.03.01-.26.09-.52.2-.79.32-.07.03-.15.07-.22.1-.29.14-.58.28-.87.45l-3.1,1.79h0s0,0,0,0h0s-6.79,3.94-6.79,3.94v23.81h0s-.01-.02-.01-.02l-.03,2.66h0s0,0,.01,0c.09,0,.18,0,.27-.01.02,0,.03,0,.05,0,.09-.01.19-.04.29-.07.02,0,.03-.01.05-.02.1-.03.21-.08.32-.13.01,0,.03-.01.04-.02.12-.06.24-.13.37-.21,0,0,0,0,0,0l3.23-1.85h0s.82-.47.82-.47c0,0,.01,0,.02-.01h.02s.03-.04.05-.05c.8-.5,1.28-1.37,1.28-2.32v-.16h0v-3.28l3.16-1.82c5.23-3.02,9.45-10.33,9.43-16.33,0-3-1.07-5.1-2.79-6.08ZM37.34,15.51c0,.06-.01.13-.03.19-.01.06-.03.13-.04.19-.04.19-.08.37-.13.56,0,0,0,.01,0,.02-.08.25-.17.5-.27.74-.11.25-.24.5-.37.74-.01.02-.02.03-.03.05-.14.24-.3.48-.46.7-.15.2-.3.38-.46.56-.09.09-.18.18-.27.26,0,0,0,0,0,0-.08.07-.15.15-.23.22-.09.08-.19.16-.29.23-.11.08-.22.16-.33.24-.05.04-.11.07-.16.1l-1.81,1.05-1.33.77v-7.29h0c.05-.03.11-.06.16-.09.08-.05.16-.09.24-.14.2-.12.4-.23.6-.34.17-.1.33-.19.49-.28.18-.1.35-.2.51-.29.08-.04.15-.09.23-.13.14-.08.28-.16.39-.22.26-.15.43-.25.48-.27,0,0,.01,0,.01,0,1-.58,1.89-.54,2.47-.04.05.05.11.08.16.13.07.08.12.18.18.27.04.06.08.11.11.18.05.11.09.25.12.38.02.07.05.12.06.2.04.21.07.44.07.69,0,.21-.02.43-.05.65Z"/>
      <path class="cls-3" d="M24.3,35.36V11.55h0s-5.05-2.93-5.05-2.93l-2.19-1.27c-.32-.18-.67-.17-.96-.03-.05.02-.09.05-.13.08-.27.18-.46.48-.45.85v5.84c.02.55-.58.9-1.06.62l-5.05-2.92c-.68-.39-1.54.1-1.54.89l-.02,5.94c0,.55-.6.89-1.07.62l-5.22-3.01c-.34-.19-.71-.17-1.01,0,0,0-.02,0-.02.01,0,0-.01,0-.02.01-.28.18-.48.48-.49.87L0,22.99c0,.82.43,1.58,1.14,1.99l21.72,12.5s0,0,0,0c.48.27.91.5,1.4.52l.03-2.66v.02Z"/>
      <path class="cls-4" d="M.55,16.21c.3-.17.68-.19,1.01,0l5.22,3.01c.48.28,1.07-.07,1.07-.62l.02-5.94c0-.4.22-.72.52-.89l-.03-.03L.55,16.21Z"/>
      <path class="cls-2" d="M15.98,7.39l-7.62,4.36.03.03c.3-.17.68-.2,1.02,0l5.05,2.92c.48.28,1.08-.07,1.07-.62v-5.84c-.02-.37.17-.67.44-.85Z"/>
    </g>
  </g>
</svg>